<svg width="900" height="900" xmlns="http://www.w3.org/2000/svg" >
 <!-- Created with Method Draw - https://github.com/duopixel/Method-Draw/ -->
  <g transform="translate(100,70) rotate(300 150 150)" >
  <title>Layer 1</title>
  <ellipse id="svg_5" cy="300" cx="300" stroke-width="1.5" stroke="#000" fill="#fff"/>
  <g id="Rocket_1">
   <path id="svg_16" d="m41.944446,175.555559c0,-25.16882 25.60773,-45.55556 57.22222,-45.55556c31.61449,0 57.22222,20.38674 57.22222,45.55556c0,25.16881 -23.38551,-9.44445 -55,-9.44445c-31.61448,0 -59.44444,34.61326 -59.44444,9.44445z" stroke-linecap="null" stroke-linejoin="null" stroke-width="4" stroke="#ffffff" fill="#000000"/>
   <path id="svg_15" d="m66.666654,153.05555c0,-46.80785 12.93585,-116.94444 30.27778,-116.94444c17.34193,0 30.83333,69.02548 30.83333,115.83333c0,46.80786 -12.93585,36.94445 -30.27777,36.94445c-17.34193,0 -30.83334,10.97452 -30.83334,-35.83334z" stroke-linecap="null" stroke-linejoin="null" stroke-width="7.5" stroke="#ffffff" fill="#000000"/>
   <ellipse ry="6.666667" rx="6.944444" id="svg_17" cy="86.666667" cx="97.777779" stroke-width="7.5" stroke="#ffffff" fill="#ffffff"/>
   <line stroke="#ffffff" stroke-linecap="null" stroke-linejoin="null" id="svg_18" y2="135.555542" x2="128.611115" y1="136.111076" x1="70.833335" stroke-opacity="null" stroke-width="7.5" fill="none"/>
   <line stroke="#000000" stroke-linecap="null" stroke-linejoin="null" id="svg_19" y2="230.833341" x2="98.055553" y1="192.500007" x1="98.055563" stroke-width="4" fill="none"/>
   <line stroke="#000000" stroke-linecap="null" stroke-linejoin="null" id="svg_23" y2="216" x2="89.166664" y1="192.499993" x1="89.166674" stroke-width="4" fill="none"/>
   <line stroke="#000000" stroke-linecap="null" stroke-linejoin="null" id="svg_24" y2="216" x2="106.388885" y1="192.499993" x1="106.388895" stroke-width="4" fill="none"/>
  </g>
 </g>
</svg>